<svg width="20" height="20" viewBox="0 0 20 20" fill="none" xmlns="http://www.w3.org/2000/svg">
<path d="M4.16711 11.6665H15.1135C15.9576 11.6665 16.3796 11.6665 16.7155 11.5091C17.0115 11.3705 17.2601 11.148 17.4306 10.8691C17.6241 10.5526 17.6707 10.1332 17.7639 9.29432L18.2514 4.90679C18.2799 4.65057 18.2941 4.52246 18.2529 4.4233C18.2167 4.33622 18.1521 4.26398 18.0695 4.2184C17.9755 4.1665 17.8466 4.1665 17.5888 4.1665H3.75044M1.66699 1.6665H2.70736C2.92788 1.6665 3.03814 1.6665 3.1244 1.70844C3.20034 1.74536 3.26327 1.80448 3.30486 1.87797C3.35209 1.96145 3.35897 2.0715 3.37273 2.29159L4.12792 14.3748C4.14168 14.5948 4.14856 14.7049 4.19579 14.7884C4.23738 14.8619 4.30031 14.921 4.37625 14.9579C4.46251 14.9998 4.57277 14.9998 4.79329 14.9998H15.8337M6.25033 17.9165H6.25866M13.7503 17.9165H13.7587M6.66699 17.9165C6.66699 18.1466 6.48044 18.3332 6.25033 18.3332C6.02021 18.3332 5.83366 18.1466 5.83366 17.9165C5.83366 17.6864 6.02021 17.4998 6.25033 17.4998C6.48044 17.4998 6.66699 17.6864 6.66699 17.9165ZM14.167 17.9165C14.167 18.1466 13.9804 18.3332 13.7503 18.3332C13.5202 18.3332 13.3337 18.1466 13.3337 17.9165C13.3337 17.6864 13.5202 17.4998 13.7503 17.4998C13.9804 17.4998 14.167 17.6864 14.167 17.9165Z" stroke="white" stroke-width="1.67" stroke-linecap="round" stroke-linejoin="round"/>
</svg>
