<svg width="21" height="21" viewBox="0 0 21 21" fill="none" xmlns="http://www.w3.org/2000/svg">
<path fill-rule="evenodd" clip-rule="evenodd" d="M10.0562 11.9488C9.932 11.8331 9.86739 11.6671 9.88078 11.4978C9.89417 11.3286 9.98411 11.1748 10.125 11.0801C10.2434 10.9688 10.4033 10.9127 10.5652 10.9258C10.7272 10.9389 10.876 11.0199 10.975 11.1488C11.191 11.4093 11.1606 11.7944 10.9062 12.0176C10.7879 12.1289 10.6279 12.1849 10.466 12.1718C10.304 12.1587 10.1552 12.0777 10.0562 11.9488ZM13.225 4.73008C16.0664 5.83779 17.9541 8.55573 18 11.6051C18 15.7472 14.6421 19.1051 10.5 19.1051C6.35785 19.1051 2.99999 15.7472 2.99999 11.6051C2.95788 8.59743 4.76028 5.87028 7.54374 4.73008C7.84999 4.65508 8.07499 4.65508 8.22499 5.03633C8.36745 5.34709 8.23379 5.71466 7.92499 5.86133C5.07932 7.12557 3.59835 10.2917 4.45193 13.2863C5.3055 16.2809 8.23322 18.1903 11.3178 17.7642C14.4024 17.3381 16.7027 14.7064 16.7125 11.5926C16.7229 9.03037 15.1592 6.72459 12.775 5.78633C12.6253 5.73972 12.5043 5.62867 12.445 5.48353C12.3858 5.3384 12.3945 5.17438 12.4687 5.03633C12.5169 4.88629 12.6291 4.76536 12.7752 4.70621C12.9212 4.64706 13.086 4.65581 13.225 4.73008ZM6.74999 11.4051C6.73685 9.54596 8.05002 7.94127 9.87499 7.58633V2.24258C9.89864 1.89496 10.1567 1.60849 10.5 1.54883H13.2562C13.5867 1.56869 13.8443 1.84278 13.8437 2.17383C13.83 2.49903 13.58 2.76502 13.2562 2.79883H11.125V7.59883C12.9754 7.9106 14.3105 9.54208 14.25 11.4176C14.2711 13.5189 12.6008 15.2477 10.5 15.2988C8.39426 15.2476 6.72197 13.5112 6.74999 11.4051ZM13 11.4801C13.0109 10.0784 11.9011 8.92416 10.5 8.88008C9.18217 9.02521 8.18461 10.1387 8.18461 11.4645C8.18461 12.7902 9.18217 13.9037 10.5 14.0488C11.8889 14.0051 12.9939 12.8697 13 11.4801Z" fill="white"/>
</svg>
