<svg width="20" height="21" viewBox="0 0 20 21" fill="none" xmlns="http://www.w3.org/2000/svg">
<path fill-rule="evenodd" clip-rule="evenodd" d="M9.55624 11.9488C9.432 11.8331 9.36739 11.6671 9.38078 11.4978C9.39417 11.3286 9.48411 11.1748 9.62499 11.0801C9.74336 10.9688 9.90329 10.9127 10.0652 10.9258C10.2272 10.9389 10.376 11.0199 10.475 11.1488C10.691 11.4093 10.6606 11.7944 10.4062 12.0176C10.2879 12.1289 10.1279 12.1849 9.96598 12.1718C9.80403 12.1587 9.65518 12.0777 9.55624 11.9488ZM12.725 4.73008C15.5664 5.83779 17.4541 8.55573 17.5 11.6051C17.5 15.7472 14.1421 19.1051 9.99999 19.1051C5.85785 19.1051 2.49999 15.7472 2.49999 11.6051C2.45788 8.59743 4.26028 5.87028 7.04374 4.73008C7.34999 4.65508 7.57499 4.65508 7.72499 5.03633C7.86745 5.34709 7.73379 5.71466 7.42499 5.86133C4.57932 7.12557 3.09835 10.2917 3.95193 13.2863C4.8055 16.2809 7.73322 18.1903 10.8178 17.7642C13.9024 17.3381 16.2027 14.7064 16.2125 11.5926C16.2229 9.03037 14.6592 6.72459 12.275 5.78633C12.1253 5.73972 12.0043 5.62867 11.945 5.48353C11.8858 5.3384 11.8945 5.17438 11.9687 5.03633C12.0169 4.88629 12.1291 4.76536 12.2752 4.70621C12.4212 4.64706 12.586 4.65581 12.725 4.73008ZM6.24999 11.4051C6.23685 9.54596 7.55002 7.94127 9.37499 7.58633V2.24258C9.39864 1.89496 9.65672 1.60849 9.99999 1.54883H12.7562C13.0867 1.56869 13.3443 1.84278 13.3437 2.17383C13.33 2.49903 13.08 2.76502 12.7562 2.79883H10.625V7.59883C12.4754 7.9106 13.8105 9.54208 13.75 11.4176C13.7711 13.5189 12.1008 15.2477 9.99999 15.2988C7.89426 15.2476 6.22197 13.5112 6.24999 11.4051ZM12.5 11.4801C12.5109 10.0784 11.4011 8.92416 9.99999 8.88008C8.68217 9.02521 7.68461 10.1387 7.68461 11.4645C7.68461 12.7902 8.68217 13.9037 9.99999 14.0488C11.3889 14.0051 12.4939 12.8697 12.5 11.4801Z" fill="#344054"/>
</svg>
